<svg xmlns="http://www.w3.org/2000/svg" xmlns:xlink="http://www.w3.org/1999/xlink" width="300" zoomAndPan="magnify" viewBox="0 0 224.87999 112.499997" height="150" preserveAspectRatio="xMidYMid meet" version="1.0"><defs><g/></defs><g fill="#ff6060" fill-opacity="1"><g transform="translate(51.112278, 44.127686)"><g><path d="M 0.390625 -0.09375 L 0.390625 -3.171875 C 0.390625 -3.191406 0.398438 -3.210938 0.421875 -3.234375 C 0.441406 -3.253906 0.460938 -3.265625 0.484375 -3.265625 L 2.375 -3.265625 C 2.40625 -3.265625 2.425781 -3.253906 2.4375 -3.234375 C 2.457031 -3.210938 2.46875 -3.191406 2.46875 -3.171875 L 2.46875 -2.796875 C 2.46875 -2.765625 2.457031 -2.738281 2.4375 -2.71875 C 2.425781 -2.707031 2.40625 -2.703125 2.375 -2.703125 L 1 -2.703125 L 1 -1.9375 L 2.15625 -1.9375 C 2.175781 -1.9375 2.191406 -1.925781 2.203125 -1.90625 C 2.222656 -1.894531 2.234375 -1.875 2.234375 -1.84375 L 2.234375 -1.46875 C 2.234375 -1.4375 2.222656 -1.410156 2.203125 -1.390625 C 2.191406 -1.378906 2.175781 -1.375 2.15625 -1.375 L 1 -1.375 L 1 -0.5625 L 2.375 -0.5625 C 2.40625 -0.5625 2.425781 -0.550781 2.4375 -0.53125 C 2.457031 -0.507812 2.46875 -0.488281 2.46875 -0.46875 L 2.46875 -0.09375 C 2.46875 -0.0703125 2.457031 -0.0507812 2.4375 -0.03125 C 2.425781 -0.0078125 2.40625 0 2.375 0 L 0.484375 0 C 0.460938 0 0.441406 -0.0078125 0.421875 -0.03125 C 0.398438 -0.0507812 0.390625 -0.0703125 0.390625 -0.09375 Z M 0.390625 -0.09375 "/></g></g></g><g fill="#ff6060" fill-opacity="1"><g transform="translate(53.790814, 44.127686)"><g><path d="M 0.296875 -0.109375 L 0.296875 -2.046875 C 0.296875 -2.078125 0.304688 -2.101562 0.328125 -2.125 C 0.347656 -2.144531 0.375 -2.15625 0.40625 -2.15625 L 0.578125 -2.15625 C 0.617188 -2.15625 0.648438 -2.132812 0.671875 -2.09375 L 0.75 -1.890625 C 0.769531 -1.921875 0.804688 -1.957031 0.859375 -2 C 0.921875 -2.050781 1 -2.097656 1.09375 -2.140625 C 1.1875 -2.179688 1.300781 -2.203125 1.4375 -2.203125 C 1.664062 -2.203125 1.84375 -2.15625 1.96875 -2.0625 C 2.09375 -1.96875 2.175781 -1.84375 2.21875 -1.6875 C 2.269531 -1.539062 2.296875 -1.382812 2.296875 -1.21875 L 2.296875 -0.109375 C 2.296875 -0.078125 2.285156 -0.0507812 2.265625 -0.03125 C 2.242188 -0.0078125 2.222656 0 2.203125 0 L 1.828125 0 C 1.796875 0 1.769531 -0.0078125 1.75 -0.03125 C 1.726562 -0.0507812 1.71875 -0.078125 1.71875 -0.109375 L 1.71875 -1.21875 C 1.71875 -1.351562 1.6875 -1.460938 1.625 -1.546875 C 1.570312 -1.628906 1.476562 -1.671875 1.34375 -1.671875 C 1.207031 -1.671875 1.101562 -1.628906 1.03125 -1.546875 C 0.957031 -1.472656 0.90625 -1.398438 0.875 -1.328125 L 0.875 -0.109375 C 0.875 -0.0664062 0.863281 -0.0351562 0.84375 -0.015625 C 0.832031 -0.00390625 0.800781 0 0.75 0 L 0.40625 0 C 0.375 0 0.347656 -0.0078125 0.328125 -0.03125 C 0.304688 -0.0507812 0.296875 -0.078125 0.296875 -0.109375 Z M 0.296875 -0.109375 "/></g></g></g><g fill="#ff6060" fill-opacity="1"><g transform="translate(56.362394, 44.127686)"><g><path d="M 0.34375 -0.890625 C 0.28125 -0.890625 0.25 -0.921875 0.25 -0.984375 L 0.25 -1.296875 C 0.25 -1.347656 0.28125 -1.375 0.34375 -1.375 L 1.390625 -1.375 C 1.441406 -1.375 1.46875 -1.347656 1.46875 -1.296875 L 1.46875 -0.984375 C 1.46875 -0.921875 1.441406 -0.890625 1.390625 -0.890625 Z M 0.34375 -0.890625 "/></g></g></g><g fill="#ff6060" fill-opacity="1"><g transform="translate(58.087631, 44.127686)"><g><path d="M 0.4375 -0.640625 L 0.4375 -1.625 L 0.234375 -1.625 C 0.203125 -1.625 0.175781 -1.632812 0.15625 -1.65625 C 0.144531 -1.675781 0.140625 -1.703125 0.140625 -1.734375 L 0.140625 -2.046875 C 0.140625 -2.117188 0.171875 -2.15625 0.234375 -2.15625 L 0.4375 -2.15625 L 0.4375 -2.75 C 0.4375 -2.78125 0.445312 -2.800781 0.46875 -2.8125 C 0.488281 -2.832031 0.515625 -2.84375 0.546875 -2.84375 L 0.921875 -2.84375 C 0.953125 -2.84375 0.976562 -2.832031 1 -2.8125 C 1.019531 -2.800781 1.03125 -2.78125 1.03125 -2.75 L 1.03125 -2.15625 L 1.53125 -2.15625 C 1.550781 -2.15625 1.570312 -2.144531 1.59375 -2.125 C 1.613281 -2.101562 1.625 -2.078125 1.625 -2.046875 L 1.625 -1.734375 C 1.625 -1.703125 1.613281 -1.675781 1.59375 -1.65625 C 1.570312 -1.632812 1.550781 -1.625 1.53125 -1.625 L 1.03125 -1.625 L 1.03125 -0.65625 C 1.03125 -0.582031 1.046875 -0.535156 1.078125 -0.515625 C 1.109375 -0.492188 1.148438 -0.484375 1.203125 -0.484375 C 1.242188 -0.484375 1.300781 -0.492188 1.375 -0.515625 C 1.445312 -0.535156 1.5 -0.546875 1.53125 -0.546875 C 1.5625 -0.566406 1.585938 -0.566406 1.609375 -0.546875 C 1.628906 -0.535156 1.640625 -0.519531 1.640625 -0.5 L 1.703125 -0.21875 C 1.722656 -0.15625 1.703125 -0.113281 1.640625 -0.09375 C 1.617188 -0.0703125 1.570312 -0.0507812 1.5 -0.03125 C 1.4375 -0.0078125 1.363281 0.00390625 1.28125 0.015625 C 1.195312 0.0351562 1.117188 0.046875 1.046875 0.046875 C 0.890625 0.046875 0.765625 0.015625 0.671875 -0.046875 C 0.585938 -0.109375 0.523438 -0.191406 0.484375 -0.296875 C 0.453125 -0.398438 0.4375 -0.515625 0.4375 -0.640625 Z M 0.4375 -0.640625 "/></g></g></g><g fill="#ff6060" fill-opacity="1"><g transform="translate(59.901222, 44.127686)"><g><path d="M 0.171875 -1.078125 C 0.171875 -1.273438 0.210938 -1.457031 0.296875 -1.625 C 0.390625 -1.800781 0.519531 -1.941406 0.6875 -2.046875 C 0.851562 -2.148438 1.039062 -2.203125 1.25 -2.203125 C 1.4375 -2.203125 1.601562 -2.15625 1.75 -2.0625 C 1.90625 -1.976562 2.023438 -1.863281 2.109375 -1.71875 C 2.191406 -1.570312 2.234375 -1.398438 2.234375 -1.203125 C 2.234375 -1.179688 2.234375 -1.15625 2.234375 -1.125 C 2.234375 -1.09375 2.234375 -1.070312 2.234375 -1.0625 C 2.222656 -1.03125 2.207031 -1.003906 2.1875 -0.984375 C 2.175781 -0.972656 2.15625 -0.96875 2.125 -0.96875 L 0.75 -0.96875 C 0.75 -0.832031 0.796875 -0.710938 0.890625 -0.609375 C 0.992188 -0.515625 1.125 -0.46875 1.28125 -0.46875 C 1.394531 -0.46875 1.488281 -0.484375 1.5625 -0.515625 C 1.632812 -0.546875 1.695312 -0.582031 1.75 -0.625 C 1.769531 -0.644531 1.789062 -0.65625 1.8125 -0.65625 C 1.84375 -0.65625 1.867188 -0.644531 1.890625 -0.625 L 2.0625 -0.375 C 2.101562 -0.332031 2.101562 -0.285156 2.0625 -0.234375 C 1.96875 -0.160156 1.851562 -0.09375 1.71875 -0.03125 C 1.582031 0.0195312 1.425781 0.046875 1.25 0.046875 C 1.039062 0.046875 0.851562 0 0.6875 -0.09375 C 0.53125 -0.195312 0.40625 -0.332031 0.3125 -0.5 C 0.21875 -0.675781 0.171875 -0.867188 0.171875 -1.078125 Z M 0.78125 -1.34375 L 1.65625 -1.34375 C 1.644531 -1.445312 1.601562 -1.535156 1.53125 -1.609375 C 1.457031 -1.679688 1.359375 -1.71875 1.234375 -1.71875 C 1.109375 -1.71875 1.003906 -1.679688 0.921875 -1.609375 C 0.847656 -1.546875 0.800781 -1.457031 0.78125 -1.34375 Z M 0.6875 -2.46875 L 0.578125 -2.640625 C 0.554688 -2.648438 0.550781 -2.660156 0.5625 -2.671875 C 0.570312 -2.691406 0.582031 -2.707031 0.59375 -2.71875 L 1.203125 -3.1875 C 1.234375 -3.21875 1.265625 -3.21875 1.296875 -3.1875 L 1.90625 -2.71875 C 1.925781 -2.707031 1.9375 -2.691406 1.9375 -2.671875 C 1.945312 -2.660156 1.945312 -2.648438 1.9375 -2.640625 L 1.8125 -2.46875 C 1.800781 -2.445312 1.785156 -2.429688 1.765625 -2.421875 C 1.753906 -2.421875 1.734375 -2.429688 1.703125 -2.453125 L 1.25 -2.734375 L 0.796875 -2.453125 C 0.773438 -2.429688 0.753906 -2.421875 0.734375 -2.421875 C 0.722656 -2.429688 0.707031 -2.445312 0.6875 -2.46875 Z M 0.6875 -2.46875 "/></g></g></g><g fill="#ff6060" fill-opacity="1"><g transform="translate(62.277492, 44.127686)"><g><path d="M 0.4375 -0.640625 L 0.4375 -1.625 L 0.234375 -1.625 C 0.203125 -1.625 0.175781 -1.632812 0.15625 -1.65625 C 0.144531 -1.675781 0.140625 -1.703125 0.140625 -1.734375 L 0.140625 -2.046875 C 0.140625 -2.117188 0.171875 -2.15625 0.234375 -2.15625 L 0.4375 -2.15625 L 0.4375 -2.75 C 0.4375 -2.78125 0.445312 -2.800781 0.46875 -2.8125 C 0.488281 -2.832031 0.515625 -2.84375 0.546875 -2.84375 L 0.921875 -2.84375 C 0.953125 -2.84375 0.976562 -2.832031 1 -2.8125 C 1.019531 -2.800781 1.03125 -2.78125 1.03125 -2.75 L 1.03125 -2.15625 L 1.53125 -2.15625 C 1.550781 -2.15625 1.570312 -2.144531 1.59375 -2.125 C 1.613281 -2.101562 1.625 -2.078125 1.625 -2.046875 L 1.625 -1.734375 C 1.625 -1.703125 1.613281 -1.675781 1.59375 -1.65625 C 1.570312 -1.632812 1.550781 -1.625 1.53125 -1.625 L 1.03125 -1.625 L 1.03125 -0.65625 C 1.03125 -0.582031 1.046875 -0.535156 1.078125 -0.515625 C 1.109375 -0.492188 1.148438 -0.484375 1.203125 -0.484375 C 1.242188 -0.484375 1.300781 -0.492188 1.375 -0.515625 C 1.445312 -0.535156 1.5 -0.546875 1.53125 -0.546875 C 1.5625 -0.566406 1.585938 -0.566406 1.609375 -0.546875 C 1.628906 -0.535156 1.640625 -0.519531 1.640625 -0.5 L 1.703125 -0.21875 C 1.722656 -0.15625 1.703125 -0.113281 1.640625 -0.09375 C 1.617188 -0.0703125 1.570312 -0.0507812 1.5 -0.03125 C 1.4375 -0.0078125 1.363281 0.00390625 1.28125 0.015625 C 1.195312 0.0351562 1.117188 0.046875 1.046875 0.046875 C 0.890625 0.046875 0.765625 0.015625 0.671875 -0.046875 C 0.585938 -0.109375 0.523438 -0.191406 0.484375 -0.296875 C 0.453125 -0.398438 0.4375 -0.515625 0.4375 -0.640625 Z M 0.4375 -0.640625 "/></g></g></g><g fill="#ff6060" fill-opacity="1"><g transform="translate(64.091084, 44.127686)"><g><path d="M 0.171875 -1.078125 C 0.171875 -1.273438 0.210938 -1.457031 0.296875 -1.625 C 0.390625 -1.800781 0.519531 -1.941406 0.6875 -2.046875 C 0.851562 -2.148438 1.039062 -2.203125 1.25 -2.203125 C 1.4375 -2.203125 1.601562 -2.15625 1.75 -2.0625 C 1.90625 -1.976562 2.023438 -1.863281 2.109375 -1.71875 C 2.191406 -1.570312 2.234375 -1.398438 2.234375 -1.203125 C 2.234375 -1.179688 2.234375 -1.15625 2.234375 -1.125 C 2.234375 -1.09375 2.234375 -1.070312 2.234375 -1.0625 C 2.222656 -1.03125 2.207031 -1.003906 2.1875 -0.984375 C 2.175781 -0.972656 2.15625 -0.96875 2.125 -0.96875 L 0.75 -0.96875 C 0.75 -0.832031 0.796875 -0.710938 0.890625 -0.609375 C 0.992188 -0.515625 1.125 -0.46875 1.28125 -0.46875 C 1.394531 -0.46875 1.488281 -0.484375 1.5625 -0.515625 C 1.632812 -0.546875 1.695312 -0.582031 1.75 -0.625 C 1.769531 -0.644531 1.789062 -0.65625 1.8125 -0.65625 C 1.84375 -0.65625 1.867188 -0.644531 1.890625 -0.625 L 2.0625 -0.375 C 2.101562 -0.332031 2.101562 -0.285156 2.0625 -0.234375 C 1.96875 -0.160156 1.851562 -0.09375 1.71875 -0.03125 C 1.582031 0.0195312 1.425781 0.046875 1.25 0.046875 C 1.039062 0.046875 0.851562 0 0.6875 -0.09375 C 0.53125 -0.195312 0.40625 -0.332031 0.3125 -0.5 C 0.21875 -0.675781 0.171875 -0.867188 0.171875 -1.078125 Z M 0.78125 -1.34375 L 1.65625 -1.34375 C 1.644531 -1.445312 1.601562 -1.535156 1.53125 -1.609375 C 1.457031 -1.679688 1.359375 -1.71875 1.234375 -1.71875 C 1.109375 -1.71875 1.003906 -1.679688 0.921875 -1.609375 C 0.847656 -1.546875 0.800781 -1.457031 0.78125 -1.34375 Z M 0.78125 -1.34375 "/></g></g></g><path fill="#ffffff" d="M 119.980469 105.710938 L 204.664062 21.03125 C 208.796875 16.894531 208.796875 10.191406 204.664062 6.058594 C 200.527344 2.039062 193.9375 2.039062 189.804688 6.058594 L 112.496094 83.367188 L 35.1875 6.058594 C 31.054688 2.039062 24.351562 2.039062 20.21875 6.058594 C 16.082031 10.191406 16.082031 16.894531 20.21875 21.03125 L 105.011719 105.824219 C 109.144531 109.957031 115.847656 109.957031 119.980469 105.710938 Z M 119.980469 105.710938 " fill-opacity="1" fill-rule="evenodd"/></svg>